<svg width="44" height="44" viewBox="0 0 44 44" fill="none" xmlns="http://www.w3.org/2000/svg">
<g opacity="0.8" clip-path="url(#clip0_17_161)">
<path d="M22 10.7835C15.793 10.7835 10.7836 15.7928 10.7836 21.9999C10.7836 28.2069 15.793 33.2163 22 33.2163C28.207 33.2163 33.2164 28.2069 33.2164 21.9999C33.2164 15.7928 28.207 10.7835 22 10.7835ZM22 29.2897C17.986 29.2897 14.7102 26.0139 14.7102 21.9999C14.7102 17.9858 17.986 14.71 22 14.71C26.0141 14.71 29.2899 17.9858 29.2899 21.9999C29.2899 26.0139 26.0141 29.2897 22 29.2897ZM33.6758 7.71002C32.2266 7.71002 31.0563 8.88034 31.0563 10.3296C31.0563 11.7788 32.2266 12.9491 33.6758 12.9491C35.125 12.9491 36.2953 11.7842 36.2953 10.3296C36.2958 9.98543 36.2283 9.64461 36.0968 9.32659C35.9653 9.00858 35.7724 8.71964 35.529 8.47631C35.2857 8.23297 34.9968 8.04004 34.6788 7.90855C34.3607 7.77705 34.0199 7.70959 33.6758 7.71002ZM43.8641 21.9999C43.8641 18.9811 43.8914 15.9897 43.7219 12.9764C43.5524 9.47643 42.7539 6.37018 40.1945 3.81081C37.6297 1.24596 34.5289 0.452994 31.0289 0.283462C28.0102 0.113931 25.0188 0.141275 22.0055 0.141275C18.9867 0.141275 15.9953 0.113931 12.982 0.283462C9.48205 0.452994 6.3758 1.25143 3.81642 3.81081C1.25158 6.37565 0.458609 9.47643 0.289078 12.9764C0.119546 15.9952 0.14689 18.9866 0.14689 21.9999C0.14689 25.0131 0.119546 28.01 0.289078 31.0233C0.458609 34.5233 1.25705 37.6296 3.81642 40.1889C6.38127 42.7538 9.48205 43.5467 12.982 43.7163C16.0008 43.8858 18.9922 43.8585 22.0055 43.8585C25.0242 43.8585 28.0156 43.8858 31.0289 43.7163C34.5289 43.5467 37.6352 42.7483 40.1945 40.1889C42.7594 37.6241 43.5524 34.5233 43.7219 31.0233C43.8969 28.01 43.8641 25.0186 43.8641 21.9999ZM39.0516 34.8952C38.6524 35.8905 38.1711 36.6342 37.4 37.3999C36.6289 38.171 35.8906 38.6522 34.8953 39.0514C32.0188 40.1944 25.1883 39.9374 22 39.9374C18.8117 39.9374 11.9758 40.1944 9.09923 39.0569C8.10392 38.6577 7.36017 38.1764 6.59455 37.4053C5.82345 36.6342 5.3422 35.896 4.94298 34.9007C3.80548 32.0186 4.06252 25.1882 4.06252 21.9999C4.06252 18.8116 3.80548 11.9756 4.94298 9.09909C5.3422 8.10378 5.82345 7.36003 6.59455 6.5944C7.36564 5.82878 8.10392 5.34206 9.09923 4.94284C11.9758 3.80534 18.8117 4.06237 22 4.06237C25.1883 4.06237 32.0242 3.80534 34.9008 4.94284C35.8961 5.34206 36.6399 5.82331 37.4055 6.5944C38.1766 7.36549 38.6578 8.10378 39.057 9.09909C40.1945 11.9756 39.9375 18.8116 39.9375 21.9999C39.9375 25.1882 40.1945 32.0186 39.0516 34.8952Z" fill="white"/>
</g>
<defs>
<clipPath id="clip0_17_161">
<rect width="44" height="44" fill="white"/>
</clipPath>
</defs>
</svg>
